<svg version="1.1" xmlns="http://www.w3.org/2000/svg" xmlns:xlink="http://www.w3.org/1999/xlink">

  <symbol id="search" viewBox="0 0 17 17">
    <path d="M16.958 15.527L11.75 10.32A6.455 6.455 0 0 0 13 6.5 6.5 6.5 0 1 0 6.5 13a6.465 6.465 0 0 0 3.839-1.263l5.205 5.204 1.414-1.414zM6.5 11C4.019 11 2 8.981 2 6.5S4.019 2 6.5 2 11 4.019 11 6.5 8.981 11 6.5 11z"/>
  </symbol>

  <symbol id="login" viewBox="0 0 21 19">
    <path d="M6 14.875L12.917 9.5 6 4.125v2.917H-.042v4.917H6z"/>
    <path d="M18 0H5C3.9 0 3 .9 3 2v2h2V2h13v15H5v-2H3v2c0 1.1.9 2 2 2h13c1.1 0 2-.9 2-2V2c0-1.1-.9-2-2-2z"/>
  </symbol>

  <symbol id="basket" viewBox="0 0 21 20">
    <path d="M5.657 2.031L5.422 0H0v2h3.64l1.5 13h13.988l1.699-12.969H5.657zM17.372 13H6.922L5.888 4.031h12.66L17.372 13z"/>
    <circle cx="6.984" cy="18" r="2"/>
    <circle cx="15.984" cy="18" r="2"/>
  </symbol>

  <symbol id="basket-not-empty" viewBox="0 0 21 20">
    <path fill="#E84D37" d="M5.888 4.031L6.922 13h10.45l1.176-8.969z"/>
    <circle cx="6.984" cy="18" r="2"/>
    <circle cx="15.984" cy="18" r="2"/>
    <path d="M5.657 2.031L5.422 0H0v2h3.64l1.5 13h13.988l1.699-12.969H5.657zM17.372 13H6.922L5.888 4.031h12.66L17.372 13z"/>
  </symbol>

  <symbol id="cross-small" viewBox="0 0 11 11">
    <path d="M10.979.728l-.708-.707L5.5 4.792.729.021.021.728 4.793 5.5.021 10.271l.707.708L5.5 6.207l4.771 4.772.708-.708L6.207 5.5z"/>
  </symbol>

  <symbol id="cross-big" viewBox="0 0 18 17">
    <path d="M17.454 1.46L16.04.046 9 7.086 1.96.046.546 1.46l7.04 7.04-7.04 7.04 1.414 1.414L9 9.914l7.04 7.04 1.414-1.414-7.04-7.04z"/>
  </symbol>

  <symbol id="arrow-right-small" viewBox="0 0 8 12">
    <path d="M7.237 5.642L1.729.133a.506.506 0 1 0-.716.716L6.163 6l-5.151 5.15a.507.507 0 0 0 .716.717l5.509-5.509a.504.504 0 0 0 0-.716z"/>
  </symbol>

  <symbol id="heart" viewBox="0 0 15 13">
    <path d="M10.799 0c-1.35 0-2.551.65-3.3 1.661A4.097 4.097 0 0 0 4.199 0C1.875 0 0 1.806 0 4.044 0 7.223 7.499 13 7.499 13s7.499-5.777 7.499-8.956C14.998 1.806 13.123 0 10.799 0z"/>
  </symbol>
  
  <view id="search-view" viewBox="0 0 17 17"/>
  <view id="search-view-black" viewBox="18 0 17 17"/>

  <view id="login-view" viewBox="35 0 21 19"/>
  <view id="login-view-black" viewBox="56 0 21 19"/>

  <view id="basket-view" viewBox="77 0 21 20"/>
  <view id="basket-view-black" viewBox="98 0 21 20"/>
  <view id="basket-not-empty-view" viewBox="119 0 21 20"/>

  <view id="cross-small-view" viewBox="140 0 11 11"/>
  <view id="cross-big-view" viewBox="151 0 18 17"/>
  <view id="arrow-right-small-view" viewBox="169 0 8 12"/>
  <view id="heart-view" viewBox="177 0 15 13"/>

  <use xlink:href="#search" style="fill: #FFFFFF" width="17" height="17" x="0" y="0"></use>
  <use xlink:href="#search" style="fill: #000000" width="17" height="17" x="18" y="0"></use>

  <use xlink:href="#login" style="fill: #FFFFFF" width="21" height="19" x="35" y="0"></use>
  <use xlink:href="#login" style="fill: #000000" width="21" height="19" x="56" y="0"></use>

  <use xlink:href="#basket" style="fill: #FFFFFF" width="21" height="20" x="77" y="0"></use>
  <use xlink:href="#basket" style="fill: #000000" width="21" height="20" x="98" y="0"></use>
  <use xlink:href="#basket-not-empty" style="fill: #343434" width="21" height="20" x="119" y="0"></use>

  <use xlink:href="#cross-small" style="fill: #231F20" width="11" height="11" x="140" y="0"></use>
  <use xlink:href="#cross-big" style="fill: #231F20" width="18" height="17" x="151" y="0"></use>
  <use xlink:href="#arrow-right-small" style="fill: #C1C6CE" width="8" height="12" x="169" y="0"></use>
  <use xlink:href="#heart" style="fill: #FFFFFF" width="15" height="13" x="177" y="0"></use>
</svg>
